# Blender v2.91.2 OBJ File: 'eyephone.blend'
# www.blender.org
o Cube_Cube.001
v -1.212375 -0.071251 0.656518
v -1.332539 -0.071251 0.554991
v -1.272457 -0.071251 0.642916
v -1.316440 -0.071251 0.605755
v -1.332539 0.071251 0.554991
v -1.212375 0.071251 0.656518
v -1.316440 0.071251 0.605755
v -1.272457 0.071251 0.642916
v -1.332539 -0.071251 -0.554991
v -1.212375 -0.071251 -0.656518
v -1.316440 -0.071251 -0.605755
v -1.272457 -0.071251 -0.642916
v -1.212375 0.071251 -0.656518
v -1.332539 0.071251 -0.554991
v -1.272457 0.071251 -0.642916
v -1.316440 0.071251 -0.605755
v 1.332539 -0.071251 0.554991
v 1.212375 -0.071251 0.656518
v 1.316440 -0.071251 0.605755
v 1.272457 -0.071251 0.642916
v 1.212375 0.071251 0.656518
v 1.332539 0.071251 0.554991
v 1.272457 0.071251 0.642916
v 1.316440 0.071251 0.605755
v 1.212375 -0.071251 -0.656518
v 1.332539 -0.071251 -0.554991
v 1.272457 -0.071251 -0.642916
v 1.316440 -0.071251 -0.605755
v 1.332539 0.071251 -0.554991
v 1.212375 0.071251 -0.656518
v 1.316440 0.071251 -0.605755
v 1.272457 0.071251 -0.642916
v -0.991933 -0.071251 -0.656518
v 0.991933 -0.071251 -0.656518
v 0.991933 -0.071251 0.656518
v -0.991933 -0.071251 0.656518
v 0.991933 0.071251 0.656518
v -0.991933 0.071251 0.656518
v 0.991933 0.071251 -0.656518
v -0.991933 0.071251 -0.656518
vt 0.000368 0.152453
vt 0.052646 0.085965
vt 0.052112 0.154509
vt 0.446089 0.997285
vt 0.080991 0.953173
vt 0.445740 0.950458
vt 0.080396 0.001553
vt 0.444659 0.046739
vt 0.080595 0.048292
vt 0.525463 0.846486
vt 0.473478 0.912863
vt 0.473823 0.844537
vt 0.007965 0.070251
vt 0.055759 0.069353
vt 0.017500 0.048594
vt 0.063918 0.056554
vt 0.029715 0.030541
vt 0.474375 0.086682
vt 0.514182 0.050066
vt 0.521535 0.073414
vt 0.470900 0.068705
vt 0.503499 0.028600
vt 0.462002 0.055066
vt 0.490180 0.010062
vt 0.496455 0.968020
vt 0.484481 0.982498
vt 0.462325 0.942189
vt 0.508581 0.950011
vt 0.470419 0.929420
vt 0.518033 0.928417
vt 0.051178 0.913049
vt 0.011196 0.949773
vt 0.003838 0.926328
vt 0.054656 0.931099
vt 0.021900 0.971334
vt 0.063581 0.944799
vt 0.035255 0.989957
vt 0.559356 0.889676
vt 0.542409 0.884302
vt 0.530004 0.869619
vt 0.525463 0.775973
vt 0.963791 0.113703
vt 0.963791 0.775973
vt 0.475021 0.155545
vt 0.050563 0.843916
vt 0.525463 0.153720
vt 0.000000 0.845720
vt 0.525463 0.113703
vt 0.559356 0.000000
vt 0.081339 1.000000
vt 0.444459 0.000000
vt 0.041771 0.016032
vt 0.525463 0.849562
vt 0.963791 0.849562
vt 0.929898 0.889676
vt 0.959250 0.869619
vt 0.946845 0.884302
vt 0.525463 0.040114
vt 0.530004 0.020057
vt 0.542409 0.005374
vt 0.929898 0.000000
vt 0.946845 0.005374
vt 0.959250 0.020057
vt 0.963791 0.040114
vn 0.0000 0.0000 1.0000
vn -0.1111 0.0000 0.9938
vn 0.9882 0.0000 -0.1529
vn 0.9882 0.0000 0.1529
vn -0.9882 0.0000 0.1529
vn -0.9882 0.0000 -0.1529
vn 0.0000 0.0000 -1.0000
vn 0.1111 0.0000 -0.9938
vn -0.4458 0.0000 0.8951
vn -0.6454 0.0000 0.7639
vn -0.9532 0.0000 0.3023
vn -0.1111 0.0000 -0.9938
vn -0.4458 0.0000 -0.8951
vn -0.6454 0.0000 -0.7639
vn -0.9532 0.0000 -0.3023
vn 0.9532 0.0000 -0.3023
vn 0.6454 0.0000 -0.7639
vn 0.4458 0.0000 -0.8951
vn 0.1111 0.0000 0.9938
vn 0.4458 0.0000 0.8951
vn 0.6454 0.0000 0.7639
vn 0.9532 0.0000 0.3023
vn 0.0000 -1.0000 -0.0000
vn 0.0000 1.0000 0.0000
s 1
f 38/1/1 1/2/2 36/3/1
f 29/4/3 17/5/4 26/6/3
f 5/7/5 9/8/6 2/9/5
f 39/10/7 25/11/8 34/12/7
f 6/13/2 3/14/9 1/2/2
f 8/15/9 4/16/10 3/14/9
f 7/17/11 2/9/5 4/16/11
f 10/18/12 15/19/13 13/20/12
f 12/21/13 16/22/14 15/19/13
f 11/23/15 14/24/6 16/22/15
f 26/6/3 31/25/16 29/26/3
f 28/27/17 32/28/18 31/25/17
f 27/29/18 30/30/8 32/28/18
f 18/31/19 23/32/20 21/33/19
f 20/34/20 24/35/21 23/32/20
f 19/36/22 22/37/4 24/35/22
f 17/5/23 19/36/23 20/34/23
f 29/38/24 31/39/24 32/40/24
f 39/41/24 38/42/24 37/43/24
f 3/14/23 4/16/23 2/9/23
f 33/44/23 35/45/23 36/3/23
f 13/20/12 33/44/7 10/18/12
f 40/46/7 34/12/7 33/44/7
f 21/33/19 35/45/1 18/31/19
f 37/47/1 36/3/1 35/45/1
f 38/42/24 40/48/24 14/49/24
f 38/1/1 6/13/2 1/2/2
f 29/4/3 22/50/4 17/5/4
f 5/7/5 14/51/6 9/8/6
f 39/10/7 30/30/8 25/11/8
f 6/13/2 8/15/9 3/14/9
f 8/15/9 7/17/10 4/16/10
f 7/17/11 5/52/5 2/9/5
f 10/18/12 12/21/13 15/19/13
f 12/21/13 11/23/14 16/22/14
f 11/23/15 9/8/6 14/24/6
f 26/6/3 28/27/16 31/25/16
f 28/27/17 27/29/18 32/28/18
f 27/29/18 25/11/8 30/30/8
f 18/31/19 20/34/20 23/32/20
f 20/34/20 19/36/21 24/35/21
f 19/36/22 17/5/4 22/37/4
f 18/31/23 35/45/23 17/5/23
f 35/45/23 34/12/23 17/5/23
f 18/31/23 17/5/23 20/34/23
f 34/12/23 25/11/23 26/6/23
f 25/11/23 27/29/23 26/6/23
f 27/29/23 28/27/23 26/6/23
f 26/6/23 17/5/23 34/12/23
f 32/40/24 30/53/24 29/38/24
f 30/53/24 39/41/24 29/38/24
f 39/41/24 37/43/24 29/38/24
f 37/43/24 21/54/24 22/55/24
f 29/38/24 37/43/24 22/55/24
f 21/54/24 23/56/24 22/55/24
f 23/56/24 24/57/24 22/55/24
f 39/41/24 40/48/24 38/42/24
f 2/9/23 9/8/23 33/44/23
f 9/8/23 11/23/23 12/21/23
f 10/18/23 9/8/23 12/21/23
f 10/18/23 33/44/23 9/8/23
f 33/44/23 36/3/23 2/9/23
f 36/3/23 1/2/23 2/9/23
f 1/2/23 3/14/23 2/9/23
f 33/44/23 34/12/23 35/45/23
f 13/20/12 40/46/7 33/44/7
f 40/46/7 39/10/7 34/12/7
f 21/33/19 37/47/1 35/45/1
f 37/47/1 38/1/1 36/3/1
f 40/48/24 13/58/24 14/49/24
f 13/58/24 15/59/24 14/49/24
f 15/59/24 16/60/24 14/49/24
f 14/49/24 5/61/24 38/42/24
f 5/61/24 7/62/24 8/63/24
f 6/64/24 5/61/24 8/63/24
f 6/64/24 38/42/24 5/61/24
